# xmcd
#
# Track frame offsets: 
#        150
#        12555
#        26273
#        38648
#        51532
#        63563
#        73907
#        85082
#        97683
#        107749
#        117611
#        129490
#        140808
#        152329
#        161911
#        174168
#        185979
#        197721
#        213072
#        224484
#
# Disc length: 3153 seconds
#
# Revision: 0
# Processed by: cddbd v1.5.2PL0 Copyright (c) Steve Scherf et al.
# Submitted via: ExactAudioCopy v0.99pb5
#
DISCID=250c4f14
DTITLE=Bill Monroe - Country Music Legends - Disc 01
DYEAR=2007
DGENRE=Bluegrass
TTITLE0=Uncle Pen
TTITLE1=Blue Moon of Kentucky
TTITLE2=New Muleskinner Blues
TTITLE3=I'm Blue, I'm Lonesome
TTITLE4=Footprints in the Snow
TTITLE5=Y'all Come
TTITLE6=Sittin' Alone in the Moonlight
TTITLE7=On and On
TTITLE8=White House Blues
TTITLE9=Happy on My Way
TTITLE10=A Voice from on High
TTITLE11=Close By
TTITLE12=Put My Little Shoes Away
TTITLE13=Used To Be
TTITLE14=Lord, Protect My Soul
TTITLE15=The Brakeman's Blues
TTITLE16=Rocky Road Blues
TTITLE17=In The Pines
TTITLE18=Cryin' Holy Unto My Lord
TTITLE19=Goodby Old Pal
EXTD=
EXTT0=
EXTT1=
EXTT2=
EXTT3=
EXTT4=
EXTT5=
EXTT6=
EXTT7=
EXTT8=
EXTT9=
EXTT10=
EXTT11=
EXTT12=
EXTT13=
EXTT14=
EXTT15=
EXTT16=
EXTT17=
EXTT18=
EXTT19=
PLAYORDER=
